<?xml version="1.0" encoding="utf-8"?>
<!-- Generator: Adobe Illustrator 16.0.0, SVG Export Plug-In . SVG Version: 6.00 Build 0)  -->
<!DOCTYPE svg PUBLIC "-//W3C//DTD SVG 1.1//EN" "http://www.w3.org/Graphics/SVG/1.1/DTD/svg11.dtd">
<svg version="1.1" id="Vrstva_1" xmlns="http://www.w3.org/2000/svg" xmlns:xlink="http://www.w3.org/1999/xlink" x="0px" y="0px"
	 width="495.359px" height="27.824px" viewBox="-1 -1.023 495.359 27.824" enable-background="new -1 -1.023 495.359 27.824"
	 xml:space="preserve">
<path fill="#282C34" d="M493.359,20.802C387.44,17.502,285.204-8.743,229.131,2.967c-30.722,6.417-56.158,11.665-78.384,10.95
	c-10.051-0.322-20.654-3.035-32.563-5.523C79.173,0.248,28.131,20.802,0,20.802h-1v5h1h493.359h1v-5H493.359z"/>
<g>
	<path fill="#E30E74" d="M39.742,15.692c18.31-3.847,39.063-8.208,58.257-8.208c7.257,0,13.979,0.635,19.979,1.888
		c2.173,0.454,4.303,0.916,6.393,1.369c9.276,2.01,18.037,3.909,26.343,4.175c1.359,0.044,2.761,0.066,4.167,0.066
		c21.615,0,46.101-5.115,74.454-11.037c9.564-1.998,20.813-2.968,34.391-2.968c28.4,0,63.641,4.374,100.95,9.004
		c39.109,4.854,83.401,10.35,127.683,11.789v0.022h2v-1.961l-0.969-0.03c-44.513-1.387-89.115-6.921-128.468-11.805
		c-37.372-4.638-72.672-9.019-101.196-9.019c-13.717,0-25.1,0.985-34.8,3.01c-30.064,6.28-55.761,11.646-78.147,10.93
		c-8.124-0.26-16.799-2.141-25.984-4.131c-2.095-0.454-4.229-0.917-6.407-1.372c-6.135-1.281-12.995-1.93-20.389-1.93
		c-19.401,0-40.263,4.383-58.668,8.251C24.484,16.855,10.461,19.802,0,19.802h-1v1.991h2C11.543,21.618,25.254,18.737,39.742,15.692
		z"/>
	<polygon fill="#E30E74" points="492.359,24.783 492.359,24.802 1,24.802 1,24.783 -1,24.783 -1,26.802 494.359,26.802 
		494.359,24.783 	"/>
</g>
</svg>
