<?xml version="1.0" encoding="utf-8"?>
<!-- Generator: Adobe Illustrator 16.0.0, SVG Export Plug-In . SVG Version: 6.00 Build 0)  -->
<!DOCTYPE svg PUBLIC "-//W3C//DTD SVG 1.1//EN" "http://www.w3.org/Graphics/SVG/1.1/DTD/svg11.dtd">
<svg version="1.1" id="Vrstva_1" xmlns="http://www.w3.org/2000/svg" xmlns:xlink="http://www.w3.org/1999/xlink" x="0px" y="0px"
	 width="495.359px" height="27.824px" viewBox="0 0 495.359 27.824" enable-background="new 0 0 495.359 27.824"
	 xml:space="preserve">
<path fill="#282C34" d="M494.359,21.824C388.44,18.524,286.204-7.721,230.131,3.989c-30.722,6.417-56.156,11.665-78.384,10.95
	c-10.051-0.322-20.654-3.035-32.563-5.523C80.173,1.271,29.131,21.824,1,21.824H0v5h1h493.359h1v-5H494.359z"/>
<g>
	<path fill="#E30E5A" d="M40.742,16.715c18.312-3.848,39.063-8.208,58.257-8.208c7.257,0,13.979,0.635,19.979,1.888
		c2.173,0.454,4.303,0.916,6.393,1.369c9.276,2.01,18.037,3.908,26.343,4.175c1.359,0.044,2.763,0.065,4.167,0.065
		c21.615,0,46.103-5.114,74.454-11.038c9.564-1.998,20.813-2.968,34.393-2.968c28.398,0,63.641,4.374,100.95,9.004
		c39.107,4.854,83.399,10.35,127.683,11.789v0.022h2v-1.961l-0.969-0.03c-44.513-1.387-89.115-6.921-128.468-11.805
		c-37.372-4.638-72.674-9.019-101.196-9.019c-13.719,0-25.102,0.985-34.802,3.01c-30.063,6.28-55.761,11.646-78.146,10.93
		c-8.124-0.26-16.799-2.141-25.984-4.131c-2.095-0.454-4.229-0.917-6.405-1.372c-6.137-1.281-12.995-1.93-20.391-1.93
		c-19.399,0-40.263,4.383-58.668,8.25C25.484,17.879,11.461,20.825,1,20.825H0v1.991h2C12.543,22.642,26.254,19.76,40.742,16.715z"
		/>
	<polygon fill="#E30E5A" points="493.359,25.807 493.359,25.825 2,25.825 2,25.807 0,25.807 0,27.825 495.359,27.825 
		495.359,25.807 	"/>
</g>
</svg>
