<?xml version="1.0" encoding="utf-8"?>
<!-- Generator: Adobe Illustrator 16.0.0, SVG Export Plug-In . SVG Version: 6.00 Build 0)  -->
<!DOCTYPE svg PUBLIC "-//W3C//DTD SVG 1.1//EN" "http://www.w3.org/Graphics/SVG/1.1/DTD/svg11.dtd">
<svg version="1.1" id="Vrstva_1" xmlns="http://www.w3.org/2000/svg" xmlns:xlink="http://www.w3.org/1999/xlink" x="0px" y="0px"
	 width="331.967px" height="56.969px" viewBox="0 0 331.967 56.969" enable-background="new 0 0 331.967 56.969"
	 xml:space="preserve">
<path fill="#E20A5A" d="M70.993,3.126c0.857,0.078,1.865,0.188,3.022,0.332s2.101,0.332,2.829,0.566
	c0.858,0.287,1.542,0.625,2.049,1.016s0.762,0.86,0.762,1.407c0,0.912-0.156,1.992-0.47,3.243c-0.313,1.25-0.729,2.8-1.251,4.649
	c-0.886,3.021-1.975,6.655-3.265,10.9c-1.291,4.246-3.019,9.716-5.182,16.409L54.877,0h-8.3l-12.65,40.366
	c-2.791-8.404-5.138-15.443-7.042-21.116c-1.904-5.672-3.168-9.523-3.794-11.553c-0.104-0.442-0.203-0.833-0.293-1.172
	c-0.092-0.339-0.137-0.69-0.137-1.056c0-0.182,0.052-0.391,0.156-0.625c0.104-0.234,0.392-0.455,0.859-0.664
	c0.494-0.208,1.171-0.41,2.03-0.605c0.857-0.195,2.16-0.397,3.902-0.605V0H0v3.048c1.043,0.13,1.962,0.307,2.757,0.527
	c0.795,0.222,1.545,0.566,2.25,1.035c0.991,0.651,1.799,1.296,2.425,1.935c0.626,0.639,1.188,1.66,1.682,3.067
	c1.591,4.637,3.547,10.374,5.867,17.212c2.321,6.838,5.658,16.586,10.014,29.247h7.894L46.09,14.882l14.615,41.189h7.902
	c3.233-9.402,6.343-18.469,9.329-27.195c2.986-8.727,5.196-15.069,6.63-19.029c0.417-1.146,0.88-2.123,1.39-2.931
	c0.509-0.808,1.361-1.55,2.562-2.228c0.782-0.416,1.578-0.762,2.386-1.035c0.809-0.273,1.616-0.449,2.426-0.527V0H70.993V3.126z"/>
<path fill="#E20A5A" d="M141.713,44.056c-1.564,2.618-2.974,4.565-4.226,5.842c-0.469,0.495-1.18,0.873-2.132,1.134
	c-0.952,0.26-1.975,0.455-3.069,0.586c-0.966,0.131-2.086,0.209-3.364,0.234s-2.373,0.039-3.286,0.039
	c-1.956,0-3.501-0.078-4.635-0.234s-2.028-0.482-2.68-0.978c-0.679-0.521-1.141-1.271-1.389-2.246
	c-0.248-0.978-0.372-2.3-0.372-3.968V28.484h5.711c1.538,0,2.896,0.176,4.068,0.528c1.173,0.352,2.189,0.996,3.051,1.934
	c0.573,0.625,1.18,1.766,1.819,3.42c0.639,1.653,1.037,3.027,1.192,4.121h2.974V15.355h-2.974c-0.183,1.121-0.581,2.437-1.192,3.947
	c-0.613,1.511-1.219,2.565-1.819,3.165c-0.965,0.964-2.034,1.615-3.208,1.953c-1.173,0.339-2.478,0.508-3.911,0.508h-5.711V3.556
	h8.059c0.912,0,2.065,0.02,3.461,0.059c1.395,0.039,2.483,0.148,3.266,0.331c1.825,0.39,3.664,1.661,5.516,3.814
	c1.852,2.154,3.155,4.283,3.911,6.385h2.974V0H94.541v3.048c0.625,0.078,1.551,0.248,2.776,0.508
	c1.227,0.261,2.178,0.547,2.855,0.859c1.095,0.495,1.786,1.049,2.073,1.661c0.287,0.612,0.43,1.387,0.43,2.324v39.113
	c0,0.989-0.17,1.805-0.508,2.442c-0.339,0.639-1.004,1.166-1.995,1.582c-0.522,0.209-1.408,0.392-2.66,0.547
	c-1.252,0.156-2.243,0.262-2.973,0.313v3.048h52.062l1.057-17.271h-2.855C144.307,39.479,143.277,41.438,141.713,44.056z"/>
<path fill="#E20A5A" d="M205.392,34.327c-1.044-1.732-2.398-3.172-4.067-4.318c-1.617-1.093-3.521-1.985-5.712-2.676
	c-2.189-0.689-4.303-1.14-6.337-1.348v-0.743c2.034-0.469,3.938-1.055,5.711-1.758c1.773-0.703,3.3-1.537,4.577-2.501
	c1.407-1.041,2.489-2.272,3.246-3.692c0.756-1.42,1.135-3.067,1.135-4.943c0-4.063-1.683-7.137-5.046-9.221S190.059,0,182.47,0
	h-30.157v3.048c0.809,0.13,1.747,0.307,2.816,0.527c1.068,0.222,2.008,0.502,2.815,0.84c1.096,0.469,1.786,1.016,2.073,1.642
	c0.287,0.625,0.43,1.406,0.43,2.344v39.074c0,1.018-0.176,1.844-0.527,2.48c-0.353,0.639-1.011,1.152-1.977,1.543
	c-0.496,0.209-1.355,0.393-2.582,0.549c-1.226,0.156-2.242,0.272-3.051,0.352v3.049h28.827c4.146,0,7.751-0.248,10.815-0.744
	c3.063-0.494,5.77-1.341,8.115-2.539c2.218-1.119,3.918-2.649,5.104-4.592c1.187-1.939,1.78-4.316,1.78-7.131
	C206.957,38.097,206.434,36.059,205.392,34.327z M174.334,3.712c0.573-0.025,1.258-0.059,2.054-0.098
	c0.795-0.039,1.44-0.059,1.938-0.059c3.468,0,6.067,0.859,7.803,2.579c1.733,1.719,2.602,4.116,2.602,7.189
	c0,3.36-1.004,6.023-3.012,7.99c-2.009,1.968-5.124,2.95-9.349,2.95h-2.034L174.334,3.712L174.334,3.712z M188.553,48.76
	c-1.943,2.087-4.466,3.131-7.569,3.131c-1.747,0-3.232-0.333-4.459-0.998c-1.226-0.666-1.956-1.48-2.189-2.445V28.133
	c0.391-0.025,0.998-0.059,1.817-0.098c0.822-0.039,1.48-0.059,1.977-0.059c4.303,0,7.602,1.03,9.896,3.093
	c2.294,2.061,3.441,5.021,3.441,8.885C191.466,43.736,190.495,46.672,188.553,48.76z"/>
<path fill="#FFFFFF" d="M252.798,3.048c0.678,0.104,1.857,0.391,3.54,0.859c1.683,0.469,2.861,0.99,3.54,1.563
	c0.938,0.73,1.636,1.922,2.093,3.576c0.456,1.654,0.685,4.148,0.685,7.482v18.795c0,5.366-1.289,9.43-3.866,12.19
	c-2.578,2.762-6.134,4.142-10.664,4.142c-4.609,0-8.125-1.25-10.546-3.751c-2.424-2.5-3.634-6.499-3.634-11.995V7.932
	c0-0.911,0.17-1.731,0.509-2.462c0.339-0.729,1.004-1.25,1.995-1.563c0.886-0.286,1.76-0.501,2.62-0.645s1.707-0.241,2.542-0.293V0
	H212.51v2.97c0.626,0.078,1.434,0.222,2.426,0.43c0.99,0.209,1.824,0.482,2.503,0.82c0.991,0.521,1.662,1.107,2.016,1.759
	c0.352,0.651,0.526,1.433,0.526,2.344V36.69c0,6.383,2.165,11.357,6.493,14.926c4.329,3.569,10.444,5.354,18.345,5.354
	c6.78,0,12.23-1.85,16.352-5.549c4.12-3.697,6.18-8.582,6.18-14.651V16.138c0-3.387,0.202-5.926,0.606-7.62
	c0.403-1.692,1.102-2.865,2.093-3.517c0.965-0.677,2.157-1.152,3.579-1.426c1.421-0.273,2.51-0.449,3.266-0.527V0h-24.095
	L252.798,3.048L252.798,3.048z"/>
<path fill="#FFFFFF" d="M329.112,37.667c-0.835,2.008-1.95,4.215-3.345,6.623c-1.396,2.41-2.758,4.278-4.087,5.607
	c-0.861,0.834-2.275,1.374-4.244,1.621c-1.97,0.248-3.997,0.372-6.082,0.372c-2.139,0-3.814-0.072-5.026-0.216
	c-1.213-0.143-2.157-0.463-2.836-0.957c-0.679-0.469-1.135-1.197-1.369-2.188c-0.233-0.991-0.353-2.345-0.353-4.063V8.01
	c0-0.911,0.17-1.726,0.509-2.442c0.339-0.716,1.018-1.243,2.034-1.582c0.834-0.26,1.818-0.462,2.953-0.605
	c1.134-0.143,2.118-0.254,2.953-0.332V0h-30.471v3.048c0.678,0.104,1.584,0.267,2.719,0.488c1.135,0.221,2.104,0.515,2.914,0.879
	c1.095,0.495,1.786,1.049,2.073,1.661c0.286,0.612,0.43,1.387,0.43,2.324v39.113c0,1.017-0.183,1.85-0.547,2.501
	c-0.366,0.65-1.019,1.158-1.956,1.523c-0.393,0.156-1.199,0.318-2.425,0.488c-1.228,0.169-2.295,0.293-3.208,0.371v3.048h51.122
	l1.097-17.778H329.112L329.112,37.667z"/>
</svg>
