<?xml version="1.0" encoding="utf-8"?>
<!-- Generator: Adobe Illustrator 16.0.0, SVG Export Plug-In . SVG Version: 6.00 Build 0)  -->
<!DOCTYPE svg PUBLIC "-//W3C//DTD SVG 1.1//EN" "http://www.w3.org/Graphics/SVG/1.1/DTD/svg11.dtd">
<svg version="1.1" id="Vrstva_1" xmlns="http://www.w3.org/2000/svg" xmlns:xlink="http://www.w3.org/1999/xlink" x="0px" y="0px"
	 width="331.967px" height="56.97px" viewBox="0 0 331.967 56.97" enable-background="new 0 0 331.967 56.97" xml:space="preserve">
<path fill="#E20A74" d="M70.993,3.126c0.858,0.078,1.866,0.188,3.023,0.332s2.1,0.332,2.829,0.566
	c0.858,0.287,1.542,0.625,2.049,1.016s0.762,0.86,0.762,1.407c0,0.912-0.157,1.992-0.47,3.243c-0.313,1.25-0.73,2.8-1.251,4.649
	c-0.886,3.021-1.975,6.655-3.265,10.9c-1.291,4.246-3.018,9.716-5.181,16.409L54.877,0h-8.3l-12.65,40.366
	c-2.791-8.405-5.138-15.443-7.042-21.116c-1.904-5.672-3.168-9.523-3.794-11.553c-0.104-0.442-0.203-0.833-0.293-1.172
	c-0.092-0.339-0.137-0.69-0.137-1.056c0-0.182,0.052-0.391,0.157-0.625c0.104-0.234,0.391-0.455,0.859-0.664
	c0.494-0.208,1.171-0.41,2.03-0.605c0.858-0.195,2.16-0.397,3.903-0.605V0H0v3.048c1.043,0.13,1.962,0.307,2.757,0.527
	c0.795,0.222,1.545,0.566,2.25,1.035c0.991,0.651,1.799,1.296,2.425,1.935c0.626,0.639,1.187,1.66,1.682,3.067
	c1.59,4.637,3.546,10.374,5.867,17.212c2.321,6.838,5.658,16.587,10.013,29.247h7.894l13.202-41.189l14.615,41.189h7.903
	c3.233-9.403,6.342-18.469,9.329-27.195c2.986-8.727,5.196-15.069,6.63-19.029c0.417-1.146,0.88-2.123,1.389-2.931
	c0.509-0.808,1.362-1.55,2.562-2.228c0.782-0.416,1.578-0.762,2.386-1.035c0.808-0.273,1.616-0.449,2.425-0.527V0H70.993V3.126z"/>
<path fill="#E20A74" d="M141.713,44.056c-1.564,2.618-2.973,4.565-4.225,5.842c-0.469,0.495-1.18,0.873-2.132,1.133
	c-0.952,0.261-1.975,0.456-3.07,0.586c-0.965,0.131-2.086,0.209-3.364,0.235c-1.278,0.025-2.373,0.039-3.286,0.039
	c-1.956,0-3.501-0.078-4.635-0.235c-1.134-0.156-2.028-0.481-2.679-0.977c-0.679-0.521-1.141-1.27-1.389-2.246
	c-0.248-0.978-0.372-2.299-0.372-3.967V28.484h5.711c1.538,0,2.895,0.176,4.068,0.528c1.173,0.352,2.19,0.996,3.051,1.934
	c0.573,0.625,1.18,1.766,1.819,3.419c0.639,1.654,1.037,3.028,1.193,4.122h2.973V15.355h-2.973
	c-0.183,1.121-0.581,2.437-1.193,3.947c-0.613,1.511-1.219,2.565-1.819,3.165c-0.965,0.964-2.034,1.615-3.208,1.953
	c-1.173,0.339-2.478,0.508-3.911,0.508h-5.711V3.556h8.058c0.913,0,2.066,0.02,3.461,0.059s2.484,0.148,3.266,0.331
	c1.825,0.39,3.664,1.661,5.516,3.814c1.851,2.154,3.155,4.283,3.911,6.385h2.973V0H94.541v3.048
	c0.625,0.078,1.551,0.248,2.777,0.508c1.226,0.261,2.177,0.547,2.855,0.859c1.095,0.495,1.786,1.049,2.073,1.661
	c0.287,0.612,0.43,1.387,0.43,2.324v39.113c0,0.99-0.17,1.805-0.508,2.442c-0.339,0.639-1.004,1.166-1.995,1.582
	c-0.522,0.209-1.408,0.392-2.66,0.548c-1.252,0.156-2.243,0.261-2.973,0.313v3.048h52.062l1.056-17.271h-2.855
	C144.307,39.479,143.277,41.438,141.713,44.056z"/>
<path fill="#E20A74" d="M205.392,34.326c-1.044-1.732-2.399-3.171-4.068-4.317c-1.617-1.094-3.521-1.986-5.711-2.677
	c-2.19-0.689-4.303-1.14-6.337-1.348v-0.743c2.034-0.469,3.938-1.055,5.711-1.758s3.299-1.537,4.577-2.501
	c1.407-1.041,2.489-2.272,3.246-3.692c0.756-1.42,1.135-3.067,1.135-4.943c0-4.063-1.683-7.137-5.046-9.221
	C195.535,1.042,190.059,0,182.47,0h-30.157v3.048c0.808,0.13,1.747,0.307,2.816,0.527c1.069,0.222,2.008,0.502,2.816,0.84
	c1.095,0.469,1.786,1.016,2.073,1.642c0.287,0.625,0.43,1.406,0.43,2.344v39.074c0,1.017-0.176,1.844-0.528,2.481
	c-0.352,0.639-1.011,1.152-1.976,1.543c-0.496,0.209-1.356,0.392-2.582,0.548c-1.226,0.156-2.243,0.273-3.051,0.352v3.048h28.827
	c4.146,0,7.751-0.248,10.815-0.743c3.064-0.494,5.77-1.341,8.116-2.539c2.217-1.12,3.918-2.65,5.104-4.592
	c1.187-1.94,1.78-4.317,1.78-7.131C206.957,38.097,206.434,36.059,205.392,34.326z M174.334,3.712
	c0.573-0.025,1.258-0.059,2.054-0.098c0.795-0.039,1.44-0.059,1.937-0.059c3.468,0,6.068,0.859,7.803,2.579
	c1.734,1.719,2.602,4.116,2.602,7.189c0,3.36-1.004,6.023-3.012,7.99c-2.009,1.968-5.124,2.95-9.349,2.95h-2.034V3.712z
	 M188.553,48.76c-1.943,2.087-4.466,3.131-7.569,3.131c-1.747,0-3.233-0.333-4.459-0.998c-1.226-0.666-1.956-1.48-2.19-2.446V28.133
	c0.391-0.025,0.998-0.059,1.818-0.098c0.822-0.039,1.48-0.059,1.976-0.059c4.303,0,7.602,1.031,9.896,3.093
	c2.294,2.061,3.441,5.022,3.441,8.884C191.466,43.736,190.495,46.672,188.553,48.76z"/>
<path fill="#FFFFFF" d="M252.798,3.048c0.678,0.104,1.858,0.391,3.54,0.859c1.683,0.469,2.861,0.99,3.54,1.563
	c0.938,0.73,1.636,1.922,2.093,3.576c0.456,1.654,0.685,4.148,0.685,7.482v18.794c0,5.367-1.29,9.431-3.867,12.191
	c-2.578,2.762-6.133,4.142-10.664,4.142c-4.609,0-8.125-1.25-10.546-3.751c-2.423-2.5-3.633-6.499-3.633-11.995V7.932
	c0-0.911,0.169-1.731,0.508-2.462c0.339-0.729,1.004-1.25,1.995-1.563c0.886-0.286,1.76-0.501,2.621-0.645
	c0.86-0.144,1.707-0.241,2.542-0.293V0H212.51v2.97c0.626,0.078,1.434,0.222,2.426,0.43c0.99,0.209,1.824,0.482,2.503,0.82
	c0.991,0.521,1.662,1.107,2.015,1.759c0.352,0.651,0.527,1.433,0.527,2.344V36.69c0,6.383,2.165,11.357,6.493,14.926
	c4.329,3.569,10.444,5.354,18.345,5.354c6.78,0,12.23-1.85,16.351-5.549c4.12-3.698,6.18-8.582,6.18-14.652V16.138
	c0-3.387,0.202-5.926,0.606-7.62c0.404-1.692,1.102-2.865,2.093-3.517c0.965-0.677,2.157-1.152,3.579-1.426
	c1.421-0.273,2.51-0.449,3.266-0.527V0h-24.095V3.048z"/>
<path fill="#FFFFFF" d="M329.112,37.667c-0.835,2.007-1.95,4.214-3.345,6.623c-1.396,2.41-2.758,4.278-4.087,5.607
	c-0.861,0.834-2.275,1.374-4.244,1.621c-1.97,0.248-3.997,0.372-6.082,0.372c-2.139,0-3.814-0.072-5.026-0.216
	c-1.213-0.143-2.158-0.462-2.836-0.957c-0.679-0.469-1.135-1.197-1.369-2.188s-0.353-2.345-0.353-4.064V8.01
	c0-0.911,0.17-1.726,0.509-2.442c0.339-0.716,1.017-1.243,2.034-1.582c0.834-0.26,1.818-0.462,2.953-0.605
	c1.134-0.143,2.118-0.254,2.953-0.332V0h-30.471v3.048c0.678,0.104,1.584,0.267,2.719,0.488s2.105,0.515,2.914,0.879
	c1.095,0.495,1.786,1.049,2.073,1.661c0.286,0.612,0.43,1.387,0.43,2.324v39.113c0,1.017-0.183,1.85-0.547,2.501
	c-0.366,0.651-1.018,1.159-1.956,1.523c-0.392,0.157-1.199,0.319-2.425,0.489c-1.227,0.169-2.295,0.293-3.208,0.371v3.048h51.123
	l1.096-17.779H329.112z"/>
</svg>
