<?xml version="1.0" encoding="utf-8"?>
<!-- Generator: Adobe Illustrator 16.0.0, SVG Export Plug-In . SVG Version: 6.00 Build 0)  -->
<!DOCTYPE svg PUBLIC "-//W3C//DTD SVG 1.1//EN" "http://www.w3.org/Graphics/SVG/1.1/DTD/svg11.dtd">
<svg version="1.1" id="Vrstva_1" xmlns="http://www.w3.org/2000/svg" xmlns:xlink="http://www.w3.org/1999/xlink" x="0px" y="0px"
	 width="115.551px" height="194.613px" viewBox="0 0 115.551 194.613" enable-background="new 0 0 115.551 194.613"
	 xml:space="preserve">
<g>
	<path fill="#919292" d="M79.061,0h-66.88C5.452,0,0,5.464,0,12.208v139.786c0,6.747,5.419,12.211,12.148,12.211h48.668v30.408
		l15.204-15.204l15.204,15.204v-30.408h12.176c6.711,0,12.15-5.464,12.15-12.104V42.571L79.061,0z M79.061,9.123l28.58,33.449H85.12
		c-3.314,0-6.059-2.747-6.059-6.135V9.123z M85.143,180.015l-9.122-9.122l-9.122,9.122v-23.94c2.768,1.313,5.855,2.049,9.122,2.049
		s6.354-0.736,9.122-2.049V180.015z M76.021,152.042c-8.397,0-15.204-6.807-15.204-15.205c0-8.397,6.807-15.203,15.204-15.203
		s15.204,6.806,15.204,15.203C91.225,145.235,84.418,152.042,76.021,152.042z M109.469,152.083c0,3.332-2.719,6.04-6.08,6.04H91.225
		v-6.39c3.766-3.838,6.082-9.1,6.082-14.896c0-11.759-9.527-21.285-21.286-21.285s-21.286,9.526-21.286,21.285
		c0,5.797,2.319,11.059,6.082,14.896v6.39H12.164c-3.317,0-6.082-2.708-6.082-6.058V12.137c0-3.287,2.711-6.055,6.055-6.055H72.98
		v30.372c0,6.807,5.44,12.199,12.151,12.199h24.338V152.083z"/>
	<rect x="18.245" y="42.571" fill="#919292" width="42.572" height="6.082"/>
	<rect x="18.245" y="24.327" fill="#919292" width="42.572" height="6.082"/>
	<rect x="18.245" y="60.816" fill="#919292" width="79.062" height="6.082"/>
	<rect x="18.245" y="79.062" fill="#919292" width="79.062" height="6.082"/>
	<rect x="18.245" y="97.307" fill="#919292" width="79.062" height="6.082"/>
</g>
</svg>
