<?xml version="1.0" encoding="utf-8"?>
<!-- Generator: Adobe Illustrator 16.0.0, SVG Export Plug-In . SVG Version: 6.00 Build 0)  -->
<!DOCTYPE svg PUBLIC "-//W3C//DTD SVG 1.1//EN" "http://www.w3.org/Graphics/SVG/1.1/DTD/svg11.dtd">
<svg version="1.1" id="Layer_1" xmlns="http://www.w3.org/2000/svg" xmlns:xlink="http://www.w3.org/1999/xlink" x="0px" y="0px"
	 width="492.371px" height="430.816px" viewBox="0 0 492.371 430.816" enable-background="new 0 0 492.371 430.816"
	 xml:space="preserve">
<g>
	<path fill="#E2085A" d="M369.283,430.816c125.663-49.555,155.443-161.844,87.79-241.239C381.622,101.031,389.947,49.012,383.784,0
		c-26.468,46.377-74.011,55.543-151.93,173.522c-24.75,37.474-48.667,172.433,90.018,257.294
		c-46.339-111.937-70.794-191.197,23.418-256.161C361.852,273.896,495.808,294.328,369.283,430.816z"/>
	<path fill="#E2085A" d="M156.413,430.816c125.663-49.555,155.443-161.844,87.789-241.238
		c-75.451-88.546-67.125-140.564-73.289-189.577c-26.465,46.376-74.008,55.542-151.93,173.522
		c-24.748,37.473-48.666,172.432,90.02,257.293C62.665,318.88,38.208,239.619,132.421,174.655
		C148.985,273.896,282.939,294.328,156.413,430.816z"/>
</g>
</svg>
